<?xml version="1.0" standalone="no"?><!DOCTYPE svg PUBLIC "-//W3C//DTD SVG 1.1//EN" "http://www.w3.org/Graphics/SVG/1.1/DTD/svg11.dtd"><svg t="1635721102146" class="icon" viewBox="0 0 1024 1024" version="1.1" xmlns="http://www.w3.org/2000/svg" p-id="3575" xmlns:xlink="http://www.w3.org/1999/xlink" width="200" height="200"><defs><style type="text/css"></style></defs><path d="M597.954 397.357v-3.101c-0.527 1.054-1.324 2.198-2.017 3.1h2.017z" p-id="3576" fill="#8a8a8a"></path><path d="M511.977 0.12C229.257 0.12 0 229.317 0 512.023c0 282.675 229.256 511.872 511.992 511.872 282.767 0 512.038-229.197 512.038-511.872C1024.015 229.317 794.76 0.12 511.977 0.12zM372.235 756.647H262.476V426.603h109.759v330.044z m-54.85-375.17h-0.752c-36.817 0-60.63-25.363-60.63-57.062 0-32.347 24.566-57.032 62.06-57.032 37.57 0 60.69 24.685 61.367 57.032 0 31.7-23.797 57.062-62.044 57.062z m450.626 375.17H658.237v-176.62c0-44.328-15.88-74.612-55.602-74.612-30.239 0-48.362 20.485-56.309 40.113-2.875 7.075-3.628 16.783-3.628 26.733v184.371H433.045s1.37-299.113 0-330.044h109.653v46.72c14.661-22.562 40.701-54.502 98.937-54.502 72.19 0 126.391 47.112 126.391 148.502l-0.015 189.34z" p-id="3577" fill="#8a8a8a"></path></svg>