<?xml version="1.0" standalone="no"?><!DOCTYPE svg PUBLIC "-//W3C//DTD SVG 1.1//EN" "http://www.w3.org/Graphics/SVG/1.1/DTD/svg11.dtd"><svg t="1635725089650" class="icon" viewBox="0 0 1024 1024" version="1.1" xmlns="http://www.w3.org/2000/svg" p-id="4615" xmlns:xlink="http://www.w3.org/1999/xlink" width="200" height="200"><defs><style type="text/css"></style></defs><path d="M512 512m-511.862 0a511.862 511.862 0 1 0 1023.724 0 511.862 511.862 0 1 0-1023.724 0Z" fill="#323653" p-id="4616"></path><path d="M755.352 317.024L328.798 767.29 580.8 1019.292c186.558-25.448 351.992-153.232 416.23-343.746a514.922 514.922 0 0 0 21.56-89.774L755.352 317.024z" opacity=".1" p-id="4617"></path><path d="M456.318 60.988m-10.832 0a10.832 10.832 0 1 0 21.664 0 10.832 10.832 0 1 0-21.664 0Z" fill="#E3DFF0" p-id="4618"></path><path d="M479.894 51.506l-24.438 7.334-22.712 11.628 24.436-7.338z" fill="#E3DFF0" p-id="4619"></path><path d="M446.836 37.41l7.336 24.438L465.8 84.56l-7.338-24.436z" fill="#E3DFF0" p-id="4620"></path><path d="M755.352 859.978m-10.83 0a10.83 10.83 0 1 0 21.66 0 10.83 10.83 0 1 0-21.66 0Z" fill="#E3DFF0" p-id="4621"></path><path d="M778.928 850.496l-24.438 7.336-22.712 11.626 24.436-7.334z" fill="#E3DFF0" p-id="4622"></path><path d="M745.872 836.4l7.336 24.44 11.626 22.708-7.336-24.432z" fill="#E3DFF0" p-id="4623"></path><path d="M64.078 671.884m-10.83 0a10.83 10.83 0 1 0 21.66 0 10.83 10.83 0 1 0-21.66 0Z" fill="#E3DFF0" p-id="4624"></path><path d="M87.654 662.402l-24.436 7.336-22.714 11.628 24.438-7.334z" fill="#E3DFF0" p-id="4625"></path><path d="M54.598 648.306l7.336 24.442 11.626 22.71-7.336-24.436z" fill="#E3DFF0" p-id="4626"></path><path d="M842.816 183.378m-16.156 0a16.156 16.156 0 1 0 32.312 0 16.156 16.156 0 1 0-32.312 0Z" fill="#E3DFF0" p-id="4627"></path><path d="M877.986 169.234l-36.458 10.942-33.878 17.344 36.454-10.944z" fill="#E3DFF0" p-id="4628"></path><path d="M828.676 148.204l10.94 36.46 17.344 33.878-10.944-36.452z" fill="#E3DFF0" p-id="4629"></path><path d="M419.096 808.812s-1.804 3.126-2.768 7.426c9.278 6.25 28.492 10.292 42.488 12.372 2.258-5.374 1.474-7.998 1.474-7.998s-23.468-3.248-41.194-11.8zM538.988 204.662s2.094-3.822 2.512-8.396c-16.704-1.876-53.2-0.746-76.436 3.514-2.23 6.186 4.02 11.936 4.02 11.936s38.894-7.364 69.904-7.054z" fill="#F6863C" p-id="4630"></path><path d="M512 513.652m-312.876 0a312.876 312.876 0 1 0 625.752 0 312.876 312.876 0 1 0-625.752 0Z" fill="#FCC59C" p-id="4631"></path><path d="M423.344 478.588m-58.572 0a58.572 58.572 0 1 0 117.144 0 58.572 58.572 0 1 0-117.144 0Z" fill="#F89F67" p-id="4632"></path><path d="M380.436 483.586c0-29.956 24.284-54.24 54.238-54.24a53.98 53.98 0 0 1 33.604 11.682c-10.744-12.842-26.882-21.012-44.934-21.012-32.348 0-58.572 26.222-58.572 58.572s26.224 58.572 58.572 58.572c0.834 0 1.664-0.028 2.49-0.062-25.75-4.222-45.398-26.57-45.398-53.512z" fill="#F6863C" p-id="4633"></path><path d="M604.216 611.012m-73.262 0a73.262 73.262 0 1 0 146.524 0 73.262 73.262 0 1 0-146.524 0Z" fill="#F89F67" p-id="4634"></path><path d="M550.548 617.264c0-37.464 30.37-67.84 67.84-67.84a67.512 67.512 0 0 1 42.032 14.612c-13.438-16.062-33.624-26.286-56.204-26.286-40.46 0-73.262 32.8-73.262 73.262s32.8 73.262 73.262 73.262c1.042 0 2.082-0.038 3.114-0.078-32.206-5.282-56.782-33.234-56.782-66.932z" fill="#F6863C" p-id="4635"></path><path d="M596.652 349.028m-34.056 0a34.056 34.056 0 1 0 68.112 0 34.056 34.056 0 1 0-68.112 0Z" fill="#F89F67" p-id="4636"></path><path d="M571.704 351.934c0-17.416 14.122-31.536 31.538-31.536 7.38 0 14.164 2.544 19.54 6.792-6.25-7.466-15.632-12.216-26.126-12.216-18.806 0-34.056 15.248-34.056 34.054s15.25 34.056 34.056 34.056c0.484 0 0.964-0.018 1.446-0.038-14.974-2.454-26.398-15.448-26.398-31.112z" fill="#F6863C" p-id="4637"></path><path d="M731.766 436.414m-34.056 0a34.056 34.056 0 1 0 68.112 0 34.056 34.056 0 1 0-68.112 0Z" fill="#F89F67" p-id="4638"></path><path d="M706.818 439.32c0-17.416 14.118-31.536 31.534-31.536 7.382 0 14.166 2.542 19.54 6.792a33.968 33.968 0 0 0-26.126-12.216c-18.806 0-34.052 15.246-34.052 34.054s15.246 34.056 34.052 34.056c0.488 0 0.968-0.018 1.45-0.038-14.976-2.454-26.398-15.446-26.398-31.112z" fill="#F6863C" p-id="4639"></path><path d="M714.818 326.158m-16.946 0a16.946 16.946 0 1 0 33.892 0 16.946 16.946 0 1 0-33.892 0Z" fill="#F89F67" p-id="4640"></path><path d="M702.406 327.602a15.692 15.692 0 0 1 25.414-12.312 16.946 16.946 0 1 0-12.282 27.794 15.696 15.696 0 0 1-13.132-15.482z" fill="#F6863C" p-id="4641"></path><path d="M369.178 326.158m-37.854 0a37.854 37.854 0 1 0 75.708 0 37.854 37.854 0 1 0-75.708 0Z" fill="#F89F67" p-id="4642"></path><path d="M341.448 329.388c0-19.36 15.694-35.052 35.054-35.052 8.204 0 15.744 2.826 21.716 7.548-6.942-8.298-17.374-13.58-29.04-13.58-20.906 0-37.854 16.946-37.854 37.854 0 20.906 16.948 37.852 37.854 37.852 0.54 0 1.074-0.018 1.608-0.04-16.64-2.73-29.338-17.172-29.338-34.582z" fill="#F6863C" p-id="4643"></path><path d="M331.326 679.634m-21.704 0a21.704 21.704 0 1 0 43.408 0 21.704 21.704 0 1 0-43.408 0Z" fill="#F89F67" p-id="4644"></path><path d="M315.426 681.484c0-11.1 8.998-20.098 20.098-20.098 4.704 0 9.028 1.624 12.452 4.33a21.646 21.646 0 0 0-16.65-7.786c-11.986 0-21.704 9.712-21.704 21.704 0 11.984 9.716 21.704 21.704 21.704 0.31 0 0.616-0.012 0.922-0.024-9.54-1.566-16.822-9.846-16.822-19.83z" fill="#F6863C" p-id="4645"></path><path d="M712.745917 729.519202a14.344 21.704 52.272 1 0-34.332454 26.561947 14.344 21.704 52.272 1 0 34.332454-26.561947Z" fill="#F89F67" p-id="4646"></path><path d="M707.362 732.124c4.49 5.802 1.012 16.01-7.768 22.802-3.722 2.878-7.794 4.678-11.598 5.356 5.076 0.054 11.028-2.024 16.318-6.12 9.478-7.336 13.234-18.356 8.388-24.624-4.846-6.264-16.464-5.398-25.946 1.938-0.242 0.186-0.48 0.38-0.718 0.574 8.182-5.018 17.284-5.144 21.324 0.074z" fill="#F6863C" p-id="4647"></path><path d="M245.945763 450.199065a14.344 21.704 21.106 1 0-15.630982 40.49601 14.344 21.704 21.106 1 0 15.630982-40.49601Z" fill="#F89F67" p-id="4648"></path><path d="M242.71 455.198c6.842 2.64 9.148 13.176 5.154 23.532-1.694 4.388-4.25 8.036-7.152 10.584 4.37-2.582 8.386-7.44 10.796-13.682 4.316-11.182 1.826-22.556-5.566-25.412-7.388-2.852-16.878 3.902-21.198 15.084-0.112 0.288-0.214 0.578-0.318 0.866 4.402-8.53 12.128-13.348 18.284-10.972z" fill="#F6863C" p-id="4649"></path><path d="M562.256 204.816c60.6 65.032 98.164 155.342 98.164 255.196 0 169.09-107.692 310.826-252.612 348.726 32.594 11.508 67.656 17.792 104.19 17.792 172.798 0 312.876-140.078 312.876-312.876 0.002-155.686-113.718-284.792-262.618-308.838z" opacity=".1" p-id="4650"></path></svg>