<?xml version="1.0" standalone="no"?><!DOCTYPE svg PUBLIC "-//W3C//DTD SVG 1.1//EN" "http://www.w3.org/Graphics/SVG/1.1/DTD/svg11.dtd"><svg t="1636246325107" class="icon" viewBox="0 0 1024 1024" version="1.1" xmlns="http://www.w3.org/2000/svg" p-id="1227" xmlns:xlink="http://www.w3.org/1999/xlink" width="200" height="200"><defs><style type="text/css"></style></defs><path d="M816.6261333333334 993.3237333333335zM52.413866666666706 366.9856zM90.62933333333336 92.49706666666668c-33.03359999999999 0-59.77066666666666 26.750933333333332-59.77066666666666 59.7728 0 33.00266666666667 26.737066666666664 59.76106666666667 59.77066666666666 59.76106666666667 32.9984 0 59.7568-26.758399999999998 59.7568-59.76106666666667 0-33.019733333333335-26.757333333333335-59.7728-59.7568-59.7728zM281.87733333333335 188.12479999999994h669.4218666666666c19.799466666666667 0 35.8528-16.0384 35.8528-35.85493333333333 0-19.8272-16.053333333333335-35.86453333333333-35.8528-35.86453333333333H281.87733333333335c-19.83573333333333 0-35.8528 16.0384-35.8528 35.8656 0 19.81546666666667 16.017066666666665 35.85386666666667 35.8528 35.85386666666667zM90.62933333333336 451.1125333333333c-33.03359999999999 0-59.77066666666666 26.743466666666666-59.77066666666666 59.78026666666666 0 33.024 26.737066666666664 59.76853333333333 59.77066666666666 59.76853333333333 32.9984 0 59.7568-26.7456 59.7568-59.76853333333333 0-33.0368-26.757333333333335-59.78026666666666-59.7568-59.78026666666666zM951.2991999999999 475.03146666666663H281.87733333333335c-19.83573333333333 0-35.8528 16.0384-35.8528 35.86133333333333 0 19.808 16.017066666666665 35.86026666666667 35.8528 35.86026666666667h669.4218666666666c19.799466666666667 0 35.8528-16.052266666666664 35.8528-35.86026666666667-0.0010666666666666667-19.82293333333333-16.053333333333335-35.86133333333333-35.8528-35.86133333333333zM90.62933333333336 833.6288000000001c-33.03359999999999 0-59.77066666666666 26.761599999999998-59.77066666666666 59.784533333333336 0 33.0368 26.737066666666664 59.75253333333333 59.77066666666666 59.75253333333333 32.9984 0 59.7568-26.716799999999996 59.7568-59.75253333333333 0-33.024-26.757333333333335-59.784533333333336-59.7568-59.784533333333336zM951.2991999999999 857.5541333333333H281.87733333333335c-19.83573333333333 0-35.8528 16.07893333333333-35.8528 35.86026666666667s16.017066666666665 35.84746666666666 35.8528 35.84746666666666h669.4218666666666c19.799466666666667 0 35.8528-16.0672 35.8528-35.84746666666666s-16.053333333333335-35.86026666666667-35.8528-35.86026666666667zM951.0272 850.2464z" p-id="1228" fill="#ccd6f6"></path></svg>