<?xml version="1.0" standalone="no"?><!DOCTYPE svg PUBLIC "-//W3C//DTD SVG 1.1//EN" "http://www.w3.org/Graphics/SVG/1.1/DTD/svg11.dtd"><svg t="1635758557566" class="icon" viewBox="0 0 8307 1024" version="1.1" xmlns="http://www.w3.org/2000/svg" p-id="2393" data-spm-anchor-id="a313x.7781069.0.i1" xmlns:xlink="http://www.w3.org/1999/xlink" width="1622.4609375" height="200"><defs><style type="text/css"></style></defs><path d="M153.011494 10.509031v760.853859L601.116585 10.509031h176.551724L186.640394 1013.91133H0V10.509031zM1024 1013.91133h-152.170772V11.770115h152.170772zM1702.042693 10.509031v152.170772h-359.829228v271.973727h277.858785V588.505747h-277.858785v273.234811h359.829228v152.170772H1190.042693V10.509031zM1983.684729 10.509031v760.853859L2431.789819 10.509031h183.697866v760.853859L3063.592775 10.509031h176.972085L2648.275862 1013.91133h-185.37931v-756.650246L2017.73399 1013.91133h-186.220033V10.509031zM4720.236453 10.509031v1003.402299h-152.170772V378.325123L4287.684729 1013.91133h-170.666667L3842.942529 380.847291v633.064039H3690.771757V10.509031h158.896552L4203.612479 829.372742 4560.91954 10.509031zM4986.745484 873.931034a493.083744 493.083744 0 0 1-150.068965-361.931034 493.083744 493.083744 0 0 1 150.068965-361.931034 511.159278 511.159278 0 0 1 723.441708 0 493.083744 493.083744 0 0 1 150.068966 361.931034 493.083744 493.083744 0 0 1-150.068966 361.931034 511.159278 511.159278 0 0 1-723.441708 0z m108.032841-615.829228a345.957307 345.957307 0 0 0-105.510673 252.216749 345.957307 345.957307 0 0 0 105.510673 252.216749 358.568144 358.568144 0 0 0 507.376026 0 345.957307 345.957307 0 0 0 105.510674-252.216749 345.957307 345.957307 0 0 0-105.510674-252.216749 358.568144 358.568144 0 0 0-507.376026 0zM6685.845649 1013.91133H6515.599343l-219.428571-422.883415h-171.927751v422.883415H5969.129721V10.509031h370.338259a277.858785 277.858785 0 0 1 204.715928 84.07225 277.438424 277.438424 0 0 1 84.07225 205.136289 280.801314 280.801314 0 0 1-47.08046 162.679803 286.26601 286.26601 0 0 1-126.108375 105.090312z m-345.116585-575.054187a137.037767 137.037767 0 0 0 137.458128-137.458128 134.935961 134.935961 0 0 0-42.036125-97.944171 132.834154 132.834154 0 0 0-97.523809-42.036125h-218.167488v276.17734zM7284.019704 10.509031v152.170772h-359.829228v271.973727h277.438424V588.505747h-277.438424v273.234811h359.829228v152.170772H6772.019704V10.509031zM8307.599343 512.840722l-406.909688-369.917898v740.256158l406.909688-370.33826z" p-id="2394" fill="#62f9d6"></path></svg>